{
  "accessors": [
    {
      "bufferView": 2,
      "componentType": 5126,
      "count": 55796,
      "max": [
        2.5834898948669434,
        0.8727104067802429,
        2.4769978523254395
      ],
      "min": [
        -2.5834898948669434,
        -0.8727104067802429,
        -2.4769978523254395
      ],
      "type": "VEC3"
    },
    {
      "bufferView": 2,
      "byteOffset": 669552,
      "componentType": 5126,
      "count": 55796,
      "max": [
        0.9999908208847046,
        1.0,
        1.0
      ],
      "min": [
        -1.0,
        -0.9991006255149841,
        -0.999994695186615
      ],
      "type": "VEC3"
    },
    {
      "bufferView": 1,
      "componentType": 5126,
      "count": 55796,
      "max": [
        0.9999890923500061,
        0.9970097541809082
      ],
      "min": [
        1.0451325579197146e-05,
        1.7577079916009097e-06
      ],
      "type": "VEC2"
    },
    {
      "bufferView": 1,
      "byteOffset": 446368,
      "componentType": 5126,
      "count": 55796,
      "max": [
        0.9999890923500061,
        0.9970097541809082
      ],
      "min": [
        1.0451325579197146e-05,
        1.7577079916009097e-06
      ],
      "type": "VEC2"
    },
    {
      "bufferView": 1,
      "byteOffset": 892736,
      "componentType": 5126,
      "count": 55796,
      "max": [
        0.9999890923500061,
        0.9970097541809082
      ],
      "min": [
        1.0451325579197146e-05,
        1.7577079916009097e-06
      ],
      "type": "VEC2"
    },
    {
      "bufferView": 1,
      "byteOffset": 1339104,
      "componentType": 5126,
      "count": 55796,
      "max": [
        0.9999890923500061,
        0.9970097541809082
      ],
      "min": [
        1.0451325579197146e-05,
        1.7577079916009097e-06
      ],
      "type": "VEC2"
    },
    {
      "bufferView": 1,
      "byteOffset": 1785472,
      "componentType": 5126,
      "count": 55796,
      "max": [
        0.9999890923500061,
        0.9970097541809082
      ],
      "min": [
        1.0451325579197146e-05,
        1.7577079916009097e-06
      ],
      "type": "VEC2"
    },
    {
      "bufferView": 0,
      "componentType": 5125,
      "count": 300000,
      "type": "SCALAR"
    }
  ],
  "asset": {
    "extras": {
      "author": "Mr. Mushi (https://sketchfab.com/mr.mushi)",
      "license": "CC-BY-NC-SA-4.0 (http://creativecommons.org/licenses/by-nc-sa/4.0/)",
      "source": "https://sketchfab.com/3d-models/panda-statue-river-safarimandai-ddba0908863b4d1fb8525ace2bbc250a",
      "title": "Panda Statue (River Safari)(Mandai)"
    },
    "generator": "Sketchfab-12.12.0",
    "version": "2.0"
  },
  "bufferViews": [
    {
      "buffer": 0,
      "byteLength": 1200000,
      "name": "floatBufferViews",
      "target": 34963
    },
    {
      "buffer": 0,
      "byteLength": 2231840,
      "byteOffset": 1200000,
      "byteStride": 8,
      "name": "floatBufferViews",
      "target": 34962
    },
    {
      "buffer": 0,
      "byteLength": 1339104,
      "byteOffset": 3431840,
      "byteStride": 12,
      "name": "floatBufferViews",
      "target": 34962
    }
  ],
  "buffers": [
    {
      "byteLength": 4770944,
      "uri": "scene.bin"
    }
  ],
  "extensionsUsed": [
    "KHR_materials_unlit"
  ],
  "images": [
    {
      "uri": "textures/material_0_baseColor.jpeg"
    }
  ],
  "materials": [
    {
      "extensions": {
        "KHR_materials_unlit": {}
      },
      "name": "material_0",
      "pbrMetallicRoughness": {
        "baseColorTexture": {
          "index": 0
        },
        "metallicFactor": 0.0
      }
    }
  ],
  "meshes": [
    {
      "name": "Object_0",
      "primitives": [
        {
          "attributes": {
            "NORMAL": 1,
            "POSITION": 0,
            "TEXCOORD_0": 2,
            "TEXCOORD_1": 3,
            "TEXCOORD_2": 4,
            "TEXCOORD_3": 5,
            "TEXCOORD_4": 6
          },
          "indices": 7,
          "material": 0,
          "mode": 4
        }
      ]
    }
  ],
  "nodes": [
    {
      "children": [
        1
      ],
      "matrix": [
        1.0,
        0.0,
        0.0,
        0.0,
        0.0,
        2.220446049250313e-16,
        -1.0,
        0.0,
        0.0,
        1.0,
        2.220446049250313e-16,
        0.0,
        0.0,
        0.0,
        0.0,
        1.0
      ],
      "name": "Sketchfab_model"
    },
    {
      "children": [
        2
      ],
      "name": "root"
    },
    {
      "children": [
        3
      ],
      "matrix": [
        1.0,
        0.0,
        0.0,
        0.0,
        0.0,
        2.220446049250313e-16,
        1.0,
        0.0,
        0.0,
        -1.0,
        2.220446049250313e-16,
        0.0,
        0.0,
        0.0,
        0.0,
        1.0
      ],
      "name": "GLTF_SceneRootNode"
    },
    {
      "children": [
        4
      ],
      "name": "_0"
    },
    {
      "mesh": 0,
      "name": "Object_4"
    }
  ],
  "samplers": [
    {
      "magFilter": 9729,
      "minFilter": 9987,
      "wrapS": 10497,
      "wrapT": 10497
    }
  ],
  "scene": 0,
  "scenes": [
    {
      "name": "Sketchfab_Scene",
      "nodes": [
        0
      ]
    }
  ],
  "textures": [
    {
      "sampler": 0,
      "source": 0
    }
  ]
}
