{
  "accessors": [
    {
      "bufferView": 2,
      "componentType": 5126,
      "count": 65532,
      "max": [
        472.6670837402344,
        605.568359375,
        508.1845703125
      ],
      "min": [
        -424.0685119628906,
        -1005.7183837890625,
        -515.029541015625
      ],
      "type": "VEC3"
    },
    {
      "bufferView": 2,
      "byteOffset": 786384,
      "componentType": 5126,
      "count": 65532,
      "max": [
        1.0,
        0.9999992847442627,
        0.9999822974205017
      ],
      "min": [
        -0.9999640583992004,
        -1.0,
        -0.9999681711196899
      ],
      "type": "VEC3"
    },
    {
      "bufferView": 1,
      "componentType": 5126,
      "count": 65532,
      "max": [
        0.9983779788017273,
        0.9992560148239136
      ],
      "min": [
        0.0007440000190399587,
        0.0007450000266544521
      ],
      "type": "VEC2"
    },
    {
      "bufferView": 0,
      "componentType": 5125,
      "count": 213051,
      "type": "SCALAR"
    },
    {
      "bufferView": 2,
      "byteOffset": 1572768,
      "componentType": 5126,
      "count": 65532,
      "max": [
        545.6373901367188,
        627.3953857421875,
        506.0289611816406
      ],
      "min": [
        -418.8399353027344,
        -1040.496826171875,
        -522.2579956054688
      ],
      "type": "VEC3"
    },
    {
      "bufferView": 2,
      "byteOffset": 2359152,
      "componentType": 5126,
      "count": 65532,
      "max": [
        0.9998345375061035,
        0.999998927116394,
        0.9999370574951172
      ],
      "min": [
        -0.9999728798866272,
        -0.9999929666519165,
        -1.0
      ],
      "type": "VEC3"
    },
    {
      "bufferView": 1,
      "byteOffset": 524256,
      "componentType": 5126,
      "count": 65532,
      "max": [
        0.9675670266151428,
        0.9992560148239136
      ],
      "min": [
        0.0007440000190399587,
        0.0014169999631121755
      ],
      "type": "VEC2"
    },
    {
      "bufferView": 0,
      "byteOffset": 852204,
      "componentType": 5125,
      "count": 333942,
      "type": "SCALAR"
    },
    {
      "bufferView": 2,
      "byteOffset": 3145536,
      "componentType": 5126,
      "count": 38574,
      "max": [
        550.8082885742188,
        628.2427368164063,
        503.59912109375
      ],
      "min": [
        -423.1645812988281,
        -611.756103515625,
        -521.0914306640625
      ],
      "type": "VEC3"
    },
    {
      "bufferView": 2,
      "byteOffset": 3608424,
      "componentType": 5126,
      "count": 38574,
      "max": [
        0.9999843239784241,
        0.9999432563781738,
        0.9999854564666748
      ],
      "min": [
        -0.9999621510505676,
        -0.9999879598617554,
        -0.9998368620872498
      ],
      "type": "VEC3"
    },
    {
      "bufferView": 1,
      "byteOffset": 1048512,
      "componentType": 5126,
      "count": 38574,
      "max": [
        0.9856969714164734,
        0.9992560148239136
      ],
      "min": [
        0.0007440000190399587,
        0.006845999974757433
      ],
      "type": "VEC2"
    },
    {
      "bufferView": 0,
      "byteOffset": 2187972,
      "componentType": 5125,
      "count": 203007,
      "type": "SCALAR"
    }
  ],
  "asset": {
    "extras": {
      "author": "Natural History Museum Vienna (https://sketchfab.com/NHMWien)",
      "license": "CC-BY-NC-4.0 (http://creativecommons.org/licenses/by-nc/4.0/)",
      "source": "https://sketchfab.com/3d-models/great-argus-nhmw-zoo-vs-70946-70947-e3827c13a3364e8084797531b58c6ed6",
      "title": "Great Argus (NHMW-Zoo-VS 70946 & 70947)"
    },
    "generator": "Sketchfab-11.72.0",
    "version": "2.0"
  },
  "bufferViews": [
    {
      "buffer": 0,
      "byteLength": 3000000,
      "name": "floatBufferViews",
      "target": 34963
    },
    {
      "buffer": 0,
      "byteLength": 1357104,
      "byteOffset": 3000000,
      "byteStride": 8,
      "name": "floatBufferViews",
      "target": 34962
    },
    {
      "buffer": 0,
      "byteLength": 4071312,
      "byteOffset": 4357104,
      "byteStride": 12,
      "name": "floatBufferViews",
      "target": 34962
    }
  ],
  "buffers": [
    {
      "byteLength": 8428416,
      "uri": "scene.bin"
    }
  ],
  "extensionsRequired": [
    "KHR_materials_pbrSpecularGlossiness"
  ],
  "extensionsUsed": [
    "KHR_materials_pbrSpecularGlossiness"
  ],
  "images": [
    {
      "uri": "textures/material_0_diffuse.png"
    }
  ],
  "materials": [
    {
      "doubleSided": true,
      "extensions": {
        "KHR_materials_pbrSpecularGlossiness": {
          "diffuseFactor": [
            1.0,
            1.0,
            1.0,
            1.0
          ],
          "diffuseTexture": {
            "index": 0
          },
          "glossinessFactor": 0.5623413251903491,
          "specularFactor": [
            0.0,
            0.0,
            0.0
          ]
        }
      },
      "name": "material_0"
    }
  ],
  "meshes": [
    {
      "name": "Object_0",
      "primitives": [
        {
          "attributes": {
            "NORMAL": 1,
            "POSITION": 0,
            "TEXCOORD_0": 2
          },
          "indices": 3,
          "material": 0,
          "mode": 4
        }
      ]
    },
    {
      "name": "Object_1",
      "primitives": [
        {
          "attributes": {
            "NORMAL": 5,
            "POSITION": 4,
            "TEXCOORD_0": 6
          },
          "indices": 7,
          "material": 0,
          "mode": 4
        }
      ]
    },
    {
      "name": "Object_2",
      "primitives": [
        {
          "attributes": {
            "NORMAL": 9,
            "POSITION": 8,
            "TEXCOORD_0": 10
          },
          "indices": 11,
          "material": 0,
          "mode": 4
        }
      ]
    }
  ],
  "nodes": [
    {
      "children": [
        1
      ],
      "matrix": [
        0.0011110729910424055,
        9.202034331990197e-06,
        2.0531415725059925e-07,
        0.0,
        9.20012615546889e-06,
        -0.0011110384203475987,
        8.773210981336001e-06,
        0.0,
        2.779589528779182e-07,
        -8.771209672554978e-06,
        -0.001111076501093794,
        0.0,
        1.7107250690460205,
        -213.73410034179693,
        200.71150207519526,
        1.0
      ],
      "name": "Sketchfab_model"
    },
    {
      "children": [
        2,
        3,
        4
      ],
      "name": "NHMW-Zoo1-VS-70946+70947_Argusfasan_low res.obj.cleaner.materialmerger.gles"
    },
    {
      "mesh": 0,
      "name": "Object_2"
    },
    {
      "mesh": 1,
      "name": "Object_3"
    },
    {
      "mesh": 2,
      "name": "Object_4"
    }
  ],
  "samplers": [
    {
      "magFilter": 9729,
      "minFilter": 9987,
      "wrapS": 10497,
      "wrapT": 10497
    }
  ],
  "scene": 0,
  "scenes": [
    {
      "name": "Sketchfab_Scene",
      "nodes": [
        0
      ]
    }
  ],
  "textures": [
    {
      "sampler": 0,
      "source": 0
    }
  ]
}
