{
  "accessors": [
    {
      "bufferView": 2,
      "componentType": 5126,
      "count": 65532,
      "max": [
        166.84442138671875,
        398.120361328125,
        763.1102294921875
      ],
      "min": [
        -106.51387786865234,
        214.1172332763672,
        -404.4034729003906
      ],
      "type": "VEC3"
    },
    {
      "bufferView": 2,
      "byteOffset": 786384,
      "componentType": 5126,
      "count": 65532,
      "max": [
        0.9999862313270569,
        0.9999963045120239,
        0.9989159107208252
      ],
      "min": [
        -0.9999918937683105,
        -1.0,
        -1.0
      ],
      "type": "VEC3"
    },
    {
      "bufferView": 1,
      "componentType": 5126,
      "count": 65532,
      "max": [
        0.9871150255203247,
        0.9994170069694519
      ],
      "min": [
        0.0005830000154674053,
        0.00030499999411404133
      ],
      "type": "VEC2"
    },
    {
      "bufferView": 0,
      "componentType": 5125,
      "count": 365811,
      "type": "SCALAR"
    },
    {
      "bufferView": 2,
      "byteOffset": 1572768,
      "componentType": 5126,
      "count": 65532,
      "max": [
        158.33306884765625,
        407.3923645019531,
        795.831787109375
      ],
      "min": [
        -103.76921081542969,
        174.47459411621094,
        -401.77044677734375
      ],
      "type": "VEC3"
    },
    {
      "bufferView": 2,
      "byteOffset": 2359152,
      "componentType": 5126,
      "count": 65532,
      "max": [
        0.999984085559845,
        1.0,
        0.9999999403953552
      ],
      "min": [
        -0.999836266040802,
        -0.9999932646751404,
        -1.0
      ],
      "type": "VEC3"
    },
    {
      "bufferView": 1,
      "byteOffset": 524256,
      "componentType": 5126,
      "count": 65532,
      "max": [
        0.9023910164833069,
        0.9994170069694519
      ],
      "min": [
        0.0005830000154674053,
        0.045719001442193985
      ],
      "type": "VEC2"
    },
    {
      "bufferView": 0,
      "byteOffset": 1463244,
      "componentType": 5125,
      "count": 363174,
      "type": "SCALAR"
    },
    {
      "bufferView": 2,
      "byteOffset": 3145536,
      "componentType": 5126,
      "count": 5882,
      "max": [
        70.89663696289063,
        396.9064025878906,
        751.1102294921875
      ],
      "min": [
        -76.7919921875,
        340.49932861328125,
        -94.61422729492188
      ],
      "type": "VEC3"
    },
    {
      "bufferView": 2,
      "byteOffset": 3216120,
      "componentType": 5126,
      "count": 5882,
      "max": [
        0.9984355568885803,
        1.0,
        0.9984562993049622
      ],
      "min": [
        -0.9998856782913208,
        -0.7305949330329895,
        -0.9951490759849548
      ],
      "type": "VEC3"
    },
    {
      "bufferView": 1,
      "byteOffset": 1048512,
      "componentType": 5126,
      "count": 5882,
      "max": [
        0.8293280005455017,
        0.8949199914932251
      ],
      "min": [
        0.6447330117225647,
        0.04533199965953827
      ],
      "type": "VEC2"
    },
    {
      "bufferView": 0,
      "byteOffset": 2915940,
      "componentType": 5125,
      "count": 21015,
      "type": "SCALAR"
    }
  ],
  "asset": {
    "extras": {
      "author": "Natural History Museum Vienna (https://sketchfab.com/NHMWien)",
      "license": "CC-BY-NC-4.0 (http://creativecommons.org/licenses/by-nc/4.0/)",
      "source": "https://sketchfab.com/3d-models/american-alligator-nhmw-zoo-hs-15682-998086fa2efc4476917191afc8e60c93",
      "title": "American Alligator (NHMW-Zoo-HS 15682)"
    },
    "generator": "Sketchfab-11.72.0",
    "version": "2.0"
  },
  "bufferViews": [
    {
      "buffer": 0,
      "byteLength": 3000000,
      "name": "floatBufferViews",
      "target": 34963
    },
    {
      "buffer": 0,
      "byteLength": 1095568,
      "byteOffset": 3000000,
      "byteStride": 8,
      "name": "floatBufferViews",
      "target": 34962
    },
    {
      "buffer": 0,
      "byteLength": 3286704,
      "byteOffset": 4095568,
      "byteStride": 12,
      "name": "floatBufferViews",
      "target": 34962
    }
  ],
  "buffers": [
    {
      "byteLength": 7382272,
      "uri": "scene.bin"
    }
  ],
  "extensionsRequired": [
    "KHR_materials_pbrSpecularGlossiness"
  ],
  "extensionsUsed": [
    "KHR_materials_pbrSpecularGlossiness"
  ],
  "images": [
    {
      "uri": "textures/material_0_diffuse.png"
    }
  ],
  "materials": [
    {
      "doubleSided": true,
      "extensions": {
        "KHR_materials_pbrSpecularGlossiness": {
          "diffuseFactor": [
            1.0,
            1.0,
            1.0,
            1.0
          ],
          "diffuseTexture": {
            "index": 0
          },
          "glossinessFactor": 0.0812329056941058,
          "specularFactor": [
            1.0,
            1.0,
            1.0
          ],
          "specularGlossinessTexture": {
            "index": 0
          }
        }
      },
      "name": "material_0"
    }
  ],
  "meshes": [
    {
      "name": "Object_0",
      "primitives": [
        {
          "attributes": {
            "NORMAL": 1,
            "POSITION": 0,
            "TEXCOORD_0": 2
          },
          "indices": 3,
          "material": 0,
          "mode": 4
        }
      ]
    },
    {
      "name": "Object_1",
      "primitives": [
        {
          "attributes": {
            "NORMAL": 5,
            "POSITION": 4,
            "TEXCOORD_0": 6
          },
          "indices": 7,
          "material": 0,
          "mode": 4
        }
      ]
    },
    {
      "name": "Object_2",
      "primitives": [
        {
          "attributes": {
            "NORMAL": 9,
            "POSITION": 8,
            "TEXCOORD_0": 10
          },
          "indices": 11,
          "material": 0,
          "mode": 4
        }
      ]
    }
  ],
  "nodes": [
    {
      "children": [
        1
      ],
      "matrix": [
        0.0005689038548640571,
        0.0015306750127704611,
        -0.003076691916521545,
        0.0,
        0.00011891330576201467,
        0.003107932313316061,
        0.001568205198703814,
        0.0,
        0.003434364386839042,
        -0.00036116766267782496,
        0.000455356920253315,
        0.0,
        -177.66433715820313,
        -56.83837509155264,
        -420.85894775390625,
        1.0
      ],
      "name": "Sketchfab_model"
    },
    {
      "children": [
        2,
        3,
        4
      ],
      "name": "NHMW-Zoo1-Mississippi-Alligator_200421_AH-VW_lowres.obj.cleaner.materialmerger.gles"
    },
    {
      "mesh": 0,
      "name": "Object_2"
    },
    {
      "mesh": 1,
      "name": "Object_3"
    },
    {
      "mesh": 2,
      "name": "Object_4"
    }
  ],
  "samplers": [
    {
      "magFilter": 9729,
      "minFilter": 9987,
      "wrapS": 10497,
      "wrapT": 10497
    }
  ],
  "scene": 0,
  "scenes": [
    {
      "name": "Sketchfab_Scene",
      "nodes": [
        0
      ]
    }
  ],
  "textures": [
    {
      "sampler": 0,
      "source": 0
    }
  ]
}
